<?xml version="1.0" encoding="UTF-8" standalone="no"?>
<svg width="512" height="512" viewBox="0 0 512 512" fill="none" xmlns="http://www.w3.org/2000/svg">
  <!-- Background grid representing land parcels -->
  <rect width="512" height="512" rx="80" fill="#1E293B" />
  
  <!-- Stylized "T" for TerraTag -->
  <path d="M256 120 L380 120 L380 160 L340 160 L340 392 L300 392 L300 160 L212 160 L212 392 L172 392 L172 160 L132 160 L132 120 L256 120Z" fill="#4ADE80" />
  
  <!-- Land parcel grid overlay -->
  <path fill-rule="evenodd" clip-rule="evenodd" d="M432 256 L432 352 L336 352 L336 432 L256 432 L256 336 L352 336 L352 256 L432 256Z" fill="#6366F1" fill-opacity="0.7" />
  <path fill-rule="evenodd" clip-rule="evenodd" d="M80 256 L80 160 L176 160 L176 80 L256 80 L256 176 L160 176 L160 256 L80 256Z" fill="#6366F1" fill-opacity="0.7" />
  
  <!-- Location marker dot -->
  <circle cx="256" cy="256" r="24" fill="#EC4899" />
</svg>